<?xml version="1.0" encoding="utf-8"?>
<!-- Generator: Adobe Illustrator 21.0.0, SVG Export Plug-In . SVG Version: 6.00 Build 0)  -->
<svg version="1.1" id="paypal" xmlns="http://www.w3.org/2000/svg" xmlns:xlink="http://www.w3.org/1999/xlink" x="0px" y="0px"
	 viewBox="0 0 750 471" style="enable-background:new 0 0 750 471;" xml:space="preserve">
<style type="text/css">
	.st0{fill:#E1E7EB;}
	.st1{fill-rule:evenodd;clip-rule:evenodd;fill:#009DE2;}
	.st2{fill-rule:evenodd;clip-rule:evenodd;fill:#113984;}
	.st3{fill-rule:evenodd;clip-rule:evenodd;fill:#172C70;}
</style>
<path id="background" class="st0" d="M40,0h670c22.1,0,40,17.9,40,40v391c0,22.1-17.9,40-40,40H40c-22.1,0-40-17.9-40-40V40
	C0,17.9,17.9,0,40,0z"/>
<path id="e" class="st1" d="M104.3,193.4h44.8c24.1,0,33.1,12.2,31.7,30.1c-2.3,29.6-20.2,45.9-43.9,45.9h-12c-3.2,0-5.4,2.1-6.3,8
	l-5.1,33.9c-0.3,2.2-1.5,3.5-3.2,3.6H82.2c-2.6,0-3.6-2-2.9-6.4l17.2-108.7C97.2,195.5,99.6,193.4,104.3,193.4z"/>
<path id="d" class="st2" d="M298.9,191.4c15.1,0,29.1,8.2,27.2,28.6c-2.3,24.2-15.3,37.7-35.9,37.8h-17.9c-2.6,0-3.8,2.1-4.5,6.4
	l-3.5,22.1c-0.5,3.3-2.2,5-4.8,5h-16.7c-2.7,0-3.6-1.7-3-5.5l13.8-88.4c0.7-4.3,2.3-6,5.3-6H298.9L298.9,191.4z M271.7,238.8l13.6,0
	c8.5-0.3,14.2-6.2,14.7-16.8c0.4-6.6-4.1-11.3-11.1-11.2l-12.8,0.1L271.7,238.8L271.7,238.8z M371.4,284.6c1.5-1.4,3.1-2.1,2.9-0.4
	l-0.5,4.1c-0.3,2.1,0.6,3.3,2.6,3.3h14.8c2.5,0,3.7-1,4.3-4.9l9.1-57.4c0.5-2.9-0.2-4.3-2.4-4.3h-16.3c-1.5,0-2.2,0.8-2.6,3.1
	l-0.6,3.5c-0.3,1.8-1.2,2.2-1.9,0.3c-2.8-6.6-9.8-9.5-19.7-9.3c-22.9,0.5-38.3,17.8-39.9,40.1c-1.3,17.2,11.1,30.7,27.3,30.7
	C360.2,293.5,365.5,290,371.4,284.6L371.4,284.6z M359,275.8c-9.8,0-16.7-7.9-15.3-17.5c1.4-9.6,10.6-17.5,20.5-17.5
	s16.7,7.9,15.3,17.5C378,267.9,368.8,275.8,359,275.8L359,275.8z M433.6,224.8h-15c-3.1,0-4.4,2.3-3.4,5.2l18.7,54.7l-18.4,26
	c-1.5,2.2-0.4,4.2,1.8,4.2h16.9c2.5,0,3.8-0.6,5-2.5l57.4-82.4c1.8-2.5,0.9-5.2-2-5.2l-16,0c-2.7,0-3.8,1.1-5.4,3.4l-24,34.7
	l-10.7-34.8C438.1,225.9,436.5,224.8,433.6,224.8z"/>
<path id="c" class="st1" d="M556.5,191.4c15.1,0,29.1,8.2,27.2,28.6c-2.3,24.2-15.3,37.7-35.9,37.8h-17.9c-2.6,0-3.8,2.1-4.5,6.4
	l-3.5,22.1c-0.5,3.3-2.2,5-4.8,5h-16.7c-2.7,0-3.6-1.7-3-5.5l13.8-88.4c0.7-4.3,2.3-6,5.3-6H556.5L556.5,191.4z M529.3,238.8l13.6,0
	c8.5-0.3,14.2-6.2,14.7-16.8c0.4-6.6-4.1-11.3-11.1-11.2l-12.8,0.1L529.3,238.8L529.3,238.8z M629,284.6c1.5-1.4,3.1-2.1,2.9-0.4
	l-0.5,4.1c-0.3,2.1,0.6,3.3,2.6,3.3h14.8c2.5,0,3.7-1,4.3-4.9l9.1-57.4c0.5-2.9-0.2-4.3-2.4-4.3h-16.3c-1.5,0-2.2,0.8-2.6,3.1
	l-0.6,3.5c-0.3,1.8-1.2,2.2-1.9,0.3c-2.8-6.6-9.8-9.5-19.7-9.3c-22.9,0.5-38.3,17.8-39.9,40.1c-1.3,17.2,11.1,30.7,27.3,30.7
	C617.8,293.5,623.1,290,629,284.6L629,284.6z M616.6,275.8c-9.8,0-16.7-7.9-15.3-17.5c1.4-9.6,10.6-17.5,20.5-17.5
	c9.8,0,16.7,7.9,15.3,17.5C635.6,267.9,626.4,275.8,616.6,275.8L616.6,275.8z M685,291.7h-17.1c-1.4,0-2.3-1.1-2.1-2.4l15.1-95.3
	c0.2-1.3,1.5-2.4,2.8-2.4h17.1c1.4,0,2.3,1.1,2.1,2.4l-15.1,95.3C687.6,290.6,686.4,291.7,685,291.7z"/>
<path id="b" class="st2" d="M76.3,156h44.9c12.6,0,27.6,0.4,37.7,9.3c6.7,5.9,10.2,15.3,9.4,25.4c-2.8,34.3-23.2,53.4-50.7,53.4
	H95.3c-3.8,0-6.3,2.5-7.3,9.3l-6.2,39.3c-0.4,2.5-1.5,4.1-3.5,4.2H50.7c-3.1,0-4.2-2.3-3.4-7.4l19.9-126C68,158.5,70.8,156,76.3,156
	z"/>
<path id="a" class="st3" d="M88.7,249.5l7.8-49.6c0.7-4.4,3.1-6.4,7.8-6.4h44.8c7.4,0,13.4,1.2,18.1,3.3
	c-4.5,30.5-24.2,47.4-50,47.4H95.1C92.1,244.2,90,245.7,88.7,249.5z"/>
</svg>
