<svg xmlns="http://www.w3.org/2000/svg" width="36" height="24" viewBox="0 0 36 24">
    <g fill="none" fill-rule="evenodd">
        <rect width="36" height="24" fill="#FFF" rx="4"/>
        <path fill="#336" fill-rule="nonzero" d="M31 4l-3.37 16H7s19.719-7.679 19.98-7.875c0 0 1.822-2.785.703-3.731-.368-.318-.636-.406-2.767-.392v-.013c-.007-.089-.167-.629-2.948-1.123-.257-.046-13.069-2.7-13.503-2.79l-.011-.002V4H31zM18.385 8.002c.192.013 6.475-.158 6.03 1.04L24.427 9h1.233c.823 0 1.412.126 1.334.971-.058.6-.583 1.761-.7 1.92-.116.157-.317.18-.213-.175.266-.916.525-1.61.2-1.737-.608-.237-2.622.277-3.742.277-.486 0-.544-.08-.538-.222.007-.157.098-.205.44-.236.357-.04 1.108-.135 1.4-.308.187-.119.246-.19.31-.3a.724.724 0 0 1 .113-.15l-9.709.003 1.544 4.612c1.365-.692 6.112-2.517 8.59-2.629.813-.04 1.292-.02 1.312.224 0 .092-.198.165-.676.25-1.23.211-3.346.837-3.838 1.002-2.588.85-5.388 2.18-7.417 3.182C13.086 16.172 5 20 5 20L7.636 8.008v-.006z"/>
    </g>
</svg>
