<svg xmlns="http://www.w3.org/2000/svg" width="36" height="24" viewBox="0 0 36 24">
    <g fill="none" fill-rule="evenodd">
        <rect width="36" height="24" fill="#FFF" rx="4"/>
        <path fill="#3F3F42" d="M22.306 15.152c-.523.146-1.204.207-1.788.207-1.52 0-2.518-.79-2.518-2.237 0-1.374.937-2.262 2.299-2.262.304 0 .632.037.827.134V9h1.18v6.152zm-1.18-3.137c-.183-.085-.438-.134-.73-.134-.717 0-1.192.438-1.192 1.204 0 .815.511 1.277 1.35 1.277.146 0 .377 0 .572-.049v-2.298zM32 15.152c-.523.146-1.204.207-1.8.207-1.508 0-2.518-.79-2.518-2.237 0-1.374.937-2.262 2.299-2.262.316 0 .632.037.827.134V9H32v6.152zm-1.192-3.137a1.717 1.717 0 0 0-.718-.134c-.73 0-1.204.438-1.204 1.204 0 .815.523 1.277 1.362 1.277.146 0 .365 0 .56-.049v-2.298zm-6.641 0c.194-.085.474-.11.705-.11.73 0 1.229.414 1.229 1.156 0 .875-.56 1.276-1.302 1.289v1.009h.061c1.533 0 2.445-.84 2.445-2.335 0-1.361-.973-2.164-2.408-2.164-.73 0-1.448.17-1.922.365V17h1.192v-4.985z"/>
        <path fill="#DC0032" d="M4.01 14.891L4 14.816V9.529l.103.049.018.019.229.12-.002-.004.045.026.045.023.002.004.252.142-.01-.01.347.196-.011-.012.412.221.007.008.263.142-.013-.014.383.216.292.161.407.213.02.021.24.129-.015-.015.343.194-.008-.01.343.194-.008-.01.412.222.017.019.231.12-.003-.004.077.043.013.007.335.184.002.002.191.109a.107.107 0 0 1 .044.046l.008.027v3.984c0 .046.021.092.054.123l.036.025.283.147.002.002.024.01c.017.009.034.017.055.021l.035.004h.013l.019-.006-.006-.006.038-.002.04-.01.09-.05v.002l.115-.063.002.001.088-.05.012-.009.001-.004.002.003.023-.014a.18.18 0 0 0 .032-.04l.008-.021v-.002l.004-.007.008-.017c.006-.003.008-.008.01-.013l.003-.024v-4.463l-.006-.019-.007-.018.007.007-.003-.016a.195.195 0 0 0-.056-.077L9.9 11.68l-.097-.062-.354-.184-.016-.018-.318-.166-.022-.024-.237-.127.014.016-.346-.196.011.011-.344-.195.01.01-.413-.22-.009-.01-.326-.175-.017-.019-.231-.121.003.005-.077-.043-.013-.006-.001-.002-.334-.183-.001-.001-.245-.135.001.001-.412-.221-.007-.009-.328-.176-.008-.009-.265-.142.016.016-.412-.234-.002-.001-.256-.14-.412-.215-.017-.02-.15-.078.055-.032-.004-.005.154-.074.007.007.084-.044.116-.061.115-.062.117-.061.115-.062.142-.074.007.007.084-.043.116-.062.116-.061h-.001l.116-.062.116-.061.142-.074.006.007.084-.044.116-.061.116-.062.116-.061.116-.062.141-.074.007.007.084-.043.116-.062.116-.061.119-.059-.004-.003.119-.057-.003-.005.155-.073.003.004.077-.037-.003-.004.119-.058-.003-.004.119-.057-.003-.004.119-.058-.003-.004.119-.057-.003-.004.154-.074.006.007.084-.044.117-.061.14-.074.092-.049h-.001l.142-.074.004.005.112-.066.006.007.084-.044.116-.062.116-.061.116-.062.141-.074.008.009.044-.02a.081.081 0 0 1 .02-.013l.021-.01-.003-.002.021-.006.018-.007.003.003.036-.007L9.5 6h.039l.001.002.033.003.068.015.065.03.077.036.003.004.245.124-.016-.017.312.163-.003-.003.4.209.003.003.306.156.001.002.32.158.012.013.298.147.002.004.307.156.004.003.318.157.004.004.305.156.005.004.304.155.002.002.32.158.004.004.306.156.002.004.307.156.002.002.32.158.003.003.306.157.001.001.244.122-.092.047.001.002-.117.06.001.001-.117.06.002.002-.118.06.002.001-.109.055.006.007-.121.056.005.005-.118.06.002.002-.118.06.002.001-.118.06.002.002-.142.086-.005-.007-.11.068-.003-.003-.114.065-.001-.002-.102.063-.005-.006-.087.053.002.002-.117.06.001.002-.117.06.001.001-.108.055.005.007-.12.056.004.005-.117.06.001.002-.117.06.001.001-.117.06.001.002-.117.06.002.001-.118.06.002.001-.108.056.005.006-.118.06.002.001-.116.062-.142.086-.005-.007-.11.068-.007-.006-.11.068-.005-.007-.11.068-.002-.001-.102.063-.004-.006-.047.03a.102.102 0 0 0-.038.029l-.014.02a.234.234 0 0 0-.033.067l-.005.032v.332c.008.016.011.033.02.053l.018.033.032.035.033.027.253.147-.022-.025.065.05h.013l.004.004.041.012a.25.25 0 0 0 .064 0l.058-.016.003.002.01-.002.079-.048-.002-.002.116-.061.117-.061.106-.057-.004-.005.117-.061.14-.074.092-.049h-.001l.116-.062.116-.061.142-.086.103-.062.004.005.112-.066.004.005.111-.067.005.005.111-.066.005.005.087-.053-.001-.001.106-.057-.003-.005.116-.061.115-.062.117-.061.115-.062.117-.061.106-.057-.004-.005.12-.058-.004-.003.142-.074.091-.049h-.001l.116-.062.116-.061.142-.086.004.005.111-.067.001.002.051-.026v5.287l-.008.055-.009.025a.251.251 0 0 1-.039.104l-.014.019a.523.523 0 0 1-.072.085l-.038.031-.013.013-.077.036-.108.056.004.006-.117.06.002.001-.116.062-.118.06.002.001-.142.086-.006-.006-.11.068v-.002l-.103.063-.006-.006-.087.053.003.003-.118.06.002.001-.117.06.001.001-.108.056.005.006-.117.06.001.001-.116.062-.117.06.001.001-.116.062-.141.086-.103.061-.006-.006-.11.068-.006-.006-.087.053.002.002-.117.06.002.002-.108.055.004.006-.117.06.002.001-.116.062-.118.06.002.001-.116.062-.142.086v-.002l-.103.063-.006-.006-.11.068-.005-.007-.088.054.003.002-.117.06.001.002-.108.055.005.006-.117.06.001.002-.116.061-.117.06.001.001-.116.062-.108.055.005.006-.141.086-.006-.006-.11.068-.006-.006-.11.067-.006-.006-.087.053.003.003-.118.06.002.001-.109.055.006.007-.118.06.002.001-.118.06.002.002-.039.024L9.59 18h-.167a.43.43 0 0 1-.083-.02l-.033-.017-.18-.098-.002-.002-.333-.183-.002-.001-.27-.149.014.015-.344-.195.01.01-.413-.233-.013-.013-.335-.184-.001-.001-.245-.135.001.001-.425-.234-.001-.001-.334-.183-.001-.001-.269-.148.013.014-.346-.196.01.011-.424-.233-.018-.02-.317-.165-.024-.026-.31-.17-.002-.002-.254-.139-.299-.154a.445.445 0 0 1-.183-.257z"/>
    </g>
</svg>
