<?xml version="1.0" encoding="utf-8"?>
<!-- Generator: Adobe Illustrator 21.0.0, SVG Export Plug-In . SVG Version: 6.00 Build 0)  -->
<svg version="1.1" id="icon" xmlns="http://www.w3.org/2000/svg" xmlns:xlink="http://www.w3.org/1999/xlink" x="0px" y="0px"
	 viewBox="0 0 512 512" style="enable-background:new 0 0 512 512;" xml:space="preserve">
<path id="Logo_1_" d="M225,202.5h-13.3c5.1-12.5,8.8-21.8,12.8-32.3c0,2.7,0,5.3,0,7.8C224.5,186.6,224.7,194.1,225,202.5z
	 M329.1,292.6h-10.9l-9,52h10.6c6.4,0,9.4-1.2,11.4-12.9l4.7-26.7c0.4-2.6,0.6-4.5,0.6-6.1C336.5,293.5,334.3,292.6,329.1,292.6z
	 M154.2,291.6h-14.5l-2.9,16.6H151c4.4,0,7-2.7,8-8.4c0.6-3.2,0.3-5.5-0.8-6.8C157.4,292.1,156,291.6,154.2,291.6z M148.2,326.5
	h-14.5l-3.3,18.9h14.2c4.8,0,6.7-1.4,8.1-9.5c0.3-1.4,0.4-2.8,0.4-3.9C153.1,328.1,151.6,326.5,148.2,326.5z M382.6,170.2
	c-4,10.4-7.7,19.7-12.8,32.3H383c-0.3-8.3-0.5-15.9-0.5-24.5C382.5,175.5,382.5,172.9,382.6,170.2z M512,0v512H0V0H512z
	 M259.3,238.8l0.6,0.2c6.1,2.3,13.7,3.4,23.3,3.4c21.6,0,41.4-2.3,46.2-29.7l1.3-7.8c0.4-1.9,0.5-3.9,0.5-6
	c0-13.1-10.3-15.2-18.7-16.8c-2.6-0.5-4.8-0.9-6.9-1.3c-3.7-0.7-6.6-1.2-8.8-1.8c-2.8-0.7-3.9-1.8-3.1-6.3c0.9-4.7,3-6.6,13.6-6.6
	c7.4,0,15,0.9,23.9,2.9l0.8,0.2l4.1-23.4l-0.6-0.2c-6.4-2.3-14-3.5-23-3.5c-20,0-38.5,2.4-43.6,31.4l-0.8,4.8
	c-0.3,1.9-0.7,4.1-0.7,6.4c0,6.7,2.8,11.4,8.3,14c5.4,2.8,13.7,4.5,19.7,5.2c4.4,0.6,7.7,1.3,9,3c0.7,1,0.9,2.5,0.5,4.6
	c-0.9,5.4-4.7,7-16.8,7c-7.4,0-15.5-0.9-24-2.8l-0.8-0.2L259.3,238.8z M211.3,144.4L171.1,240h25.5l7.3-18.1h21.7l0.5,18.1h26.5
	l-5-95.6H211.3z M101.3,238.8l0.6,0.2c6.1,2.3,13.7,3.4,23.3,3.4c21.6,0,41.4-2.3,46.2-29.7l1.3-7.8c0.4-1.9,0.5-3.9,0.5-6
	c0-13.1-10.3-15.2-18.7-16.8c-2.6-0.5-4.8-0.9-6.9-1.3c-3.7-0.7-6.5-1.2-8.8-1.8c-2.8-0.7-3.9-1.8-3.1-6.3c0.9-4.7,3-6.6,13.6-6.6
	c7.4,0,15,0.9,23.9,2.9l0.8,0.2l4.1-23.4l-0.6-0.2c-6.4-2.3-14-3.5-23-3.5c-20.1,0-38.5,2.4-43.6,31.4l-0.8,4.8
	c-0.3,1.9-0.7,4.1-0.7,6.4c0,6.7,2.8,11.4,8.3,14c5.4,2.8,13.7,4.5,19.7,5.2c4.4,0.6,7.7,1.3,9,3c0.7,1,0.9,2.5,0.5,4.6
	c-0.9,5.4-4.7,7-16.8,7c-7.4,0-15.5-0.9-24.1-2.8l-0.8-0.2L101.3,238.8z M184.8,287.1c0-11.6-7.3-17.5-21.7-17.5h-44.8l-16.9,97.9
	h44.2c18.4,0,29.1-7.4,31.7-22l1.2-6.9c0.5-2.9,0.8-5.4,0.8-7.6c0-8-3.3-11.4-7.2-13.4c5.9-3.2,9.4-7.6,11.4-19.8l0.8-4.7
	C184.6,291.2,184.8,289.3,184.8,287.1z M268.4,334.2l11.2-64.6h-25.7l-11,63.3c-1.7,9.8-5.9,11.5-14.2,11.5
	c-7.7,0-10.2-1.7-10.2-6.9c0-1.2,0.1-2.6,0.4-4.3l11.1-63.6h-26.4l-11.2,64.3c-0.8,4.8-1.2,9.1-1.2,12.7c0,16.8,9.3,23.3,33.1,23.3
	C252.6,370,263.8,361,268.4,334.2z M363.2,293.4c0-16.2-9.6-23.8-30.3-23.8h-36.6l-16.9,97.9h36.9c23.9,0,36.8-10.3,40.6-32.6
	l5.6-32.5C362.9,299.2,363.2,296.1,363.2,293.4z M410.7,269.6h-26l-16.9,97.9h26L410.7,269.6z M410.7,240l-5-95.6h-36.4L329.2,240
	h25.5l7.3-18.1h21.7l0.5,18.1H410.7z"/>
</svg>
