<?xml version="1.0" encoding="utf-8"?>
<!-- Generator: Adobe Illustrator 21.0.0, SVG Export Plug-In . SVG Version: 6.00 Build 0)  -->
<svg version="1.1" id="icon" xmlns="http://www.w3.org/2000/svg" xmlns:xlink="http://www.w3.org/1999/xlink" x="0px" y="0px"
	 viewBox="0 0 256 256" style="enable-background:new 0 0 256 256;" xml:space="preserve">
<style type="text/css">
	.st0{fill:#FFFFFF;}
</style>
<path id="Logo" class="st0" d="M110,96.9h-7.7c3-7.3,5.1-12.7,7.5-18.8c0,1.6,0,3.1,0,4.5C109.7,87.6,109.8,92,110,96.9z
	 M170.5,149.3h-6.3l-5.2,30.3h6.2c3.7,0,5.5-0.7,6.6-7.5l2.7-15.5c0.2-1.5,0.4-2.6,0.4-3.5C174.9,149.8,173.5,149.3,170.5,149.3z
	 M68.7,148.7h-8.4l-1.7,9.7h8.2c2.6,0,4.1-1.5,4.6-4.9c0.3-1.9,0.2-3.2-0.4-3.9C70.6,149,69.8,148.7,68.7,148.7z M65.3,169h-8.4
	L55,180h8.2c2.8,0,3.9-0.8,4.7-5.5c0.1-0.8,0.2-1.6,0.2-2.3C68.1,170,67.3,169,65.3,169z M201.6,78.1c-2.3,6.1-4.5,11.5-7.5,18.8
	h7.7c-0.2-4.8-0.3-9.3-0.3-14.2C201.6,81.2,201.6,79.7,201.6,78.1z M256,0v256H0V0H256z M129.9,118l0.4,0.1c3.5,1.3,8,2,13.6,2
	c12.6,0,24.1-1.3,26.9-17.3l0.8-4.5c0.2-1.1,0.3-2.3,0.3-3.5c0-7.6-6-8.8-10.9-9.8c-1.5-0.3-2.8-0.6-4-0.8c-2.1-0.4-3.8-0.7-5.1-1.1
	c-1.6-0.4-2.3-1.1-1.8-3.7c0.5-2.7,1.7-3.8,7.9-3.8c4.3,0,8.7,0.5,13.9,1.7l0.5,0.1l2.4-13.6l-0.4-0.1c-3.7-1.4-8.1-2-13.4-2
	c-11.7,0-22.4,1.4-25.3,18.3l-0.5,2.8c-0.2,1.1-0.4,2.4-0.4,3.7c0,3.9,1.6,6.6,4.8,8.1c3.1,1.6,8,2.6,11.5,3.1
	c2.6,0.3,4.5,0.8,5.2,1.8c0.4,0.6,0.5,1.4,0.3,2.7c-0.5,3.2-2.7,4.1-9.8,4.1c-4.3,0-9-0.5-14-1.6l-0.5-0.1L129.9,118z M102,63.1
	l-23.3,55.6h14.8l4.2-10.5h12.6l0.3,10.5H126l-2.9-55.6H102z M38,118l0.4,0.1c3.5,1.3,8,2,13.6,2c12.6,0,24.1-1.3,26.9-17.3l0.8-4.5
	c0.2-1.1,0.3-2.3,0.3-3.5c0-7.6-6-8.8-10.9-9.8c-1.5-0.3-2.8-0.6-4-0.8c-2.1-0.4-3.8-0.7-5.1-1.1c-1.6-0.4-2.3-1.1-1.8-3.7
	c0.5-2.7,1.7-3.8,7.9-3.8c4.3,0,8.7,0.5,13.9,1.7l0.5,0.1l2.4-13.6l-0.4-0.1c-3.7-1.4-8.1-2-13.4-2c-11.7,0-22.4,1.4-25.3,18.3
	l-0.5,2.8c-0.2,1.1-0.4,2.4-0.4,3.7c0,3.9,1.6,6.6,4.8,8.1c3.1,1.6,8,2.6,11.5,3.1c2.6,0.3,4.5,0.8,5.2,1.8c0.4,0.6,0.5,1.4,0.3,2.7
	c-0.5,3.2-2.7,4.1-9.8,4.1c-4.3,0-9-0.5-14-1.6l-0.5-0.1L38,118z M86.6,146.1c0-6.8-4.2-10.2-12.6-10.2H47.8l-9.8,57h25.7
	c10.7,0,16.9-4.3,18.4-12.8l0.7-4c0.3-1.7,0.5-3.2,0.5-4.4c0-4.6-1.9-6.6-4.2-7.8c3.4-1.9,5.4-4.4,6.7-11.5l0.5-2.7
	C86.5,148.5,86.6,147.4,86.6,146.1z M135.2,173.5l6.5-37.6h-15l-6.4,36.8c-1,5.7-3.5,6.7-8.3,6.7c-4.5,0-5.9-1-5.9-4
	c0-0.7,0.1-1.5,0.2-2.5l6.4-37H97.4l-6.5,37.4c-0.5,2.8-0.7,5.3-0.7,7.4c0,9.8,5.4,13.6,19.3,13.6
	C126,194.3,132.5,189.1,135.2,173.5z M190.4,149.7c0-9.4-5.6-13.8-17.7-13.8h-21.3l-9.8,57H163c13.9,0,21.4-6,23.6-18.9l3.3-18.9
	C190.2,153.1,190.4,151.3,190.4,149.7z M218,135.9h-15.1l-9.8,57h15.1L218,135.9z M218,118.7l-2.9-55.6h-21.2l-23.3,55.6h14.8
	l4.2-10.5h12.6l0.3,10.5H218z"/>
</svg>
